<svg xmlns="http://www.w3.org/2000/svg" xmlns:xlink="http://www.w3.org/1999/xlink" xmlns:lucid="lucid" width="1615" height="590"><g transform="translate(-40 -143)" lucid:page-tab-id="0_0"><path d="M0 0h1760v1360H0z" fill="#fff"/><path d="M1306.85 205c0-2.76 2.24-5 5-5h280c2.76 0 5 2.24 5 5v446c0 2.76-2.24 5-5 5h-280c-2.76 0-5-2.24-5-5z" fill="#fff"/><path d="M1306.85 200h290v40h-290z" fill="#ccc"/><path d="M1306.85 205c0-2.76 2.24-5 5-5h280c2.76 0 5 2.24 5 5v446c0 2.76-2.24 5-5 5h-280c-2.76 0-5-2.24-5-5zM1306.85 240h290M1451.85 240v416" stroke="#333" fill="none"/><use xlink:href="#a" transform="matrix(1,0,0,1,1316.8534472146566,200) translate(0 23.6)"/><use xlink:href="#b" transform="matrix(1,0,0,1,1311.8534472146566,242.5) translate(0 17.1)"/><use xlink:href="#c" transform="matrix(1,0,0,1,1456.8534472146566,242.5) translate(0 17.1)"/><use xlink:href="#d" transform="matrix(1,0,0,1,1311.8534472146566,274.5) translate(0 17.1)"/><use xlink:href="#e" transform="matrix(1,0,0,1,1456.8534472146566,274.5) translate(0 17.1)"/><use xlink:href="#f" transform="matrix(1,0,0,1,1311.8534472146566,306.5) translate(0 17.1)"/><use xlink:href="#g" transform="matrix(1,0,0,1,1456.8534472146566,306.5) translate(0 17.1)"/><use xlink:href="#h" transform="matrix(1,0,0,1,1311.8534472146566,338.5) translate(0 17.1)"/><use xlink:href="#g" transform="matrix(1,0,0,1,1456.8534472146566,338.5) translate(0 17.1)"/><use xlink:href="#i" transform="matrix(1,0,0,1,1311.8534472146566,370.5) translate(0 17.1)"/><use xlink:href="#g" transform="matrix(1,0,0,1,1456.8534472146566,370.5) translate(0 17.1)"/><use xlink:href="#j" transform="matrix(1,0,0,1,1311.8534472146566,402.5) translate(0 17.1)"/><use xlink:href="#g" transform="matrix(1,0,0,1,1456.8534472146566,402.5) translate(0 17.1)"/><use xlink:href="#k" transform="matrix(1,0,0,1,1311.8534472146566,434.5) translate(0 17.1)"/><use xlink:href="#g" transform="matrix(1,0,0,1,1456.8534472146566,434.5) translate(0 17.1)"/><use xlink:href="#l" transform="matrix(1,0,0,1,1311.8534472146566,466.5) translate(0 17.1)"/><use xlink:href="#g" transform="matrix(1,0,0,1,1456.8534472146566,466.5) translate(0 17.1)"/><use xlink:href="#m" transform="matrix(1,0,0,1,1311.8534472146566,498.5) translate(0 17.1)"/><use xlink:href="#g" transform="matrix(1,0,0,1,1456.8534472146566,498.5) translate(0 17.1)"/><use xlink:href="#n" transform="matrix(1,0,0,1,1311.8534472146566,530.5) translate(0 17.1)"/><use xlink:href="#g" transform="matrix(1,0,0,1,1456.8534472146566,530.5) translate(0 17.1)"/><use xlink:href="#o" transform="matrix(1,0,0,1,1311.8534472146566,562.5) translate(0 17.1)"/><use xlink:href="#g" transform="matrix(1,0,0,1,1456.8534472146566,562.5) translate(0 17.1)"/><use xlink:href="#p" transform="matrix(1,0,0,1,1311.8534472146566,594.5) translate(0 17.1)"/><use xlink:href="#g" transform="matrix(1,0,0,1,1456.8534472146566,594.5) translate(0 17.1)"/><use xlink:href="#q" transform="matrix(1,0,0,1,1311.8534472146566,626.5) translate(0 17.1)"/><use xlink:href="#g" transform="matrix(1,0,0,1,1456.8534472146566,626.5) translate(0 17.1)"/><path d="M500 205c0-2.76 2.24-5 5-5h290c2.76 0 5 2.24 5 5v286c0 2.76-2.24 5-5 5H505c-2.76 0-5-2.24-5-5z" fill="#fff"/><path d="M500 200h300v40H500z" fill="#ccc"/><path d="M500 205c0-2.76 2.24-5 5-5h290c2.76 0 5 2.24 5 5v286c0 2.76-2.24 5-5 5H505c-2.76 0-5-2.24-5-5zM500 240h300M650 240v256" stroke="#333" fill="none"/><use xlink:href="#r" transform="matrix(1,0,0,1,510,200) translate(0 23.6)"/><use xlink:href="#b" transform="matrix(1,0,0,1,505,242.5) translate(0 17.1)"/><use xlink:href="#c" transform="matrix(1,0,0,1,655,242.5) translate(0 17.1)"/><use xlink:href="#s" transform="matrix(1,0,0,1,505,274.5) translate(0 17.1)"/><use xlink:href="#t" transform="matrix(1,0,0,1,655,274.5) translate(0 17.1)"/><use xlink:href="#u" transform="matrix(1,0,0,1,505,306.5) translate(0 17.1)"/><use xlink:href="#t" transform="matrix(1,0,0,1,655,306.5) translate(0 17.1)"/><use xlink:href="#v" transform="matrix(1,0,0,1,505,338.5) translate(0 17.1)"/><use xlink:href="#w" transform="matrix(1,0,0,1,655,338.5) translate(0 17.1)"/><use xlink:href="#x" transform="matrix(1,0,0,1,505,370.5) translate(0 17.1)"/><use xlink:href="#y" transform="matrix(1,0,0,1,655,370.5) translate(0 17.1)"/><use xlink:href="#z" transform="matrix(1,0,0,1,505,402.5) translate(0 17.1)"/><use xlink:href="#y" transform="matrix(1,0,0,1,655,402.5) translate(0 17.1)"/><use xlink:href="#A" transform="matrix(1,0,0,1,505,434.5) translate(0 17.1)"/><use xlink:href="#t" transform="matrix(1,0,0,1,655,434.5) translate(0 17.1)"/><use xlink:href="#B" transform="matrix(1,0,0,1,505,466.5) translate(0 17.1)"/><use xlink:href="#t" transform="matrix(1,0,0,1,655,466.5) translate(0 17.1)"/><path d="M100 225c0-2.76 2.24-5 5-5h290c2.76 0 5 2.24 5 5v158c0 2.76-2.24 5-5 5H105c-2.76 0-5-2.24-5-5z" fill="#fff"/><path d="M100 220h300v40H100z" fill="#ccc"/><path d="M100 225c0-2.76 2.24-5 5-5h290c2.76 0 5 2.24 5 5v158c0 2.76-2.24 5-5 5H105c-2.76 0-5-2.24-5-5zM100 260h300M238.28 260v128" stroke="#333" fill="none"/><use xlink:href="#C" transform="matrix(1,0,0,1,110,220) translate(0 23.6)"/><use xlink:href="#b" transform="matrix(1,0,0,1,105,262.5) translate(0 17.1)"/><use xlink:href="#c" transform="matrix(1,0,0,1,243.27983457586146,262.5) translate(0 17.1)"/><use xlink:href="#D" transform="matrix(1,0,0,1,105,294.5) translate(0 17.1)"/><use xlink:href="#e" transform="matrix(1,0,0,1,243.27983457586146,294.5) translate(0 17.1)"/><use xlink:href="#E" transform="matrix(1,0,0,1,105,326.5) translate(0 17.1)"/><use xlink:href="#e" transform="matrix(1,0,0,1,243.27983457586146,326.5) translate(0 17.1)"/><use xlink:href="#d" transform="matrix(1,0,0,1,105,358.5) translate(0 17.1)"/><use xlink:href="#e" transform="matrix(1,0,0,1,243.27983457586146,358.5) translate(0 17.1)"/><path d="M453.15 117.16c0-4.42 3.58-8 8-8h837.7c4.42 0 8 3.58 8 8V120c0 4.42-3.58 8-8 8h-837.7c-4.42 0-8-3.58-8-8z" stroke="#000" stroke-opacity="0" stroke-width="2" fill="#fff" fill-opacity="0"/><use xlink:href="#F" transform="matrix(1,0,0,1,457.1465527853434,113.15522395684805) translate(350.01972222222224 14.917037037037037)"/><use xlink:href="#G" transform="matrix(1,0,0,1,457.1465527853434,113.15522395684805) translate(399.2652983539095 14.917037037037037)"/><use xlink:href="#H" transform="matrix(1,0,0,1,457.1465527853434,113.15522395684805) translate(411.7147839506173 14.917037037037037)"/><use xlink:href="#I" transform="matrix(1,0,0,1,457.1465527853434,113.15522395684805) translate(443.11468106995886 14.917037037037037)"/><use xlink:href="#J" transform="matrix(1,0,0,1,457.1465527853434,113.15522395684805) translate(468.6085082304527 14.917037037037037)"/><path d="M441.24 275.93l3 1.24 2.6 2 2 2.6 1.24 3 .42 3.2v116l.4 3 1.14 2.77 1.83 2.4 2.4 1.82 2.75 1.14 3 .4h1.15v1h-1.2l-3.2-.42-3-1.24-2.6-2-2-2.6-1.25-3-.42-3.2v-116l-.4-3.02-1.14-2.75-1.83-2.4-2.4-1.83-2.75-1.14-3-.4h-18.14v-1h18.2zM499 415.5v1h-2.88v-1zm-98-139v-1h8.84v1zM401 276.5h-.5v-1h.5zM499.5 416.5h-.5v-1h.5z" fill="#333"/><use xlink:href="#K" transform="matrix(1,0,0,1,463.1720033750812,405.2) translate(0.004999999999999005 14.4)"/><use xlink:href="#L" transform="matrix(1,0,0,1,409.8446507405482,265.20664294187424) translate(0.004999999999999893 14.4)"/><path d="M841.24 255.92l3 1.24 2.6 2 2 2.6 1.24 3 .42 3.2v28l.4 3.02 1.14 2.76 1.83 2.4 2.4 1.82 2.75 1.14 2.24.3v1l-2.5-.32-3-1.24-2.6-2-2-2.6-1.24-3-.42-3.2v-28l-.4-3.02-1.14-2.76-1.83-2.4-2.4-1.82-2.75-1.14-2.97-.4v-1h.03zM899.5 308.5h-.3v-1h.3z" fill="#333"/><path fill="#333"/><use xlink:href="#M" transform="matrix(1,0,0,1,800.0567210859522,245.2) translate(0.004999999999999005 14.4)"/><use xlink:href="#M" transform="matrix(1,0,0,1,861.2634324243113,297.2) translate(0.004999999999999005 14.4)"/><path d="M900 225c0-2.76 2.24-5 5-5h290c2.76 0 5 2.24 5 5v158c0 2.76-2.24 5-5 5H905c-2.76 0-5-2.24-5-5z" fill="#fff"/><path d="M900 220h300v40H900z" fill="#ccc"/><path d="M900 225c0-2.76 2.24-5 5-5h290c2.76 0 5 2.24 5 5v158c0 2.76-2.24 5-5 5H905c-2.76 0-5-2.24-5-5zM900 260h300M1050 260v128" stroke="#333" fill="none"/><use xlink:href="#N" transform="matrix(1,0,0,1,910,220) translate(0 23.6)"/><use xlink:href="#b" transform="matrix(1,0,0,1,905,262.5) translate(0 17.1)"/><use xlink:href="#c" transform="matrix(1,0,0,1,1055,262.5) translate(0 17.1)"/><use xlink:href="#O" transform="matrix(1,0,0,1,905,294.5) translate(0 17.1)"/><use xlink:href="#c" transform="matrix(1,0,0,1,1055,294.5) translate(0 17.1)"/><use xlink:href="#P" transform="matrix(1,0,0,1,905,326.5) translate(0 17.1)"/><use xlink:href="#c" transform="matrix(1,0,0,1,1055,326.5) translate(0 17.1)"/><use xlink:href="#Q" transform="matrix(1,0,0,1,905,358.5) translate(0 17.1)"/><use xlink:href="#t" transform="matrix(1,0,0,1,1055,358.5) translate(0 17.1)"/><path d="M1268.52 256.5h-3.06l-3.02.4-2.75 1.14-2.4 1.83-1.84 2.4-1.14 2.75-.4 3v60l-.4 3.22-1.26 3-2 2.6-2.6 2-3 1.24-3.2.42h-7.72v-1h7.65l3-.4 2.77-1.14 2.4-1.83 1.82-2.4 1.13-2.75.4-3v-60l.42-3.22 1.24-3 1.98-2.6 2.6-2 3-1.24 3.2-.42h3.14z" fill="#333"/><path fill="#333"/><path d="M1200.8 340.5h-.3v-1h.3z" fill="#333"/><g><use xlink:href="#K" transform="matrix(1,0,0,1,1200.7918244250507,329.2) translate(0.004999999999999005 14.4)"/></g><g><use xlink:href="#M" transform="matrix(1,0,0,1,1268.5234393557914,245.2) translate(0.004999999999999005 14.4)"/></g><defs><path fill="#333" d="M50-231l6-30h32l-6 30H50zM6 0l37-190h31L37 0H6" id="R"/><path fill="#333" d="M67-158c22-48 132-52 116 29L158 0h-32l25-140c3-38-53-32-70-12C52-117 51-52 38 0H6l36-190h30" id="S"/><path fill="#333" d="M103-194c29 0 47 14 56 36 2-11 5-23 8-32h30L160-5C157 61 82 97 21 62 9 55 4 45 1 30l28-7c7 42 83 31 92-3 4-16 9-38 13-55-13 20-29 36-62 36-40 0-60-25-60-64 0-71 23-131 91-131zm4 24c-53 0-58 54-61 104-2 27 10 44 36 44 49 0 65-50 67-102 1-29-15-46-42-46" id="T"/><path fill="#333" d="M66-151c12-25 30-51 66-40l-6 26C45-176 58-65 38 0H6l36-190h30" id="U"/><path fill="#333" d="M111-194c62-3 86 47 72 106H45c-7 38 6 69 45 68 27-1 43-14 53-32l24 11C152-15 129 4 87 4 38 3 12-23 12-71c0-70 32-119 99-123zm44 81c14-66-71-72-95-28-4 8-8 17-11 28h106" id="V"/><path fill="#333" d="M133-28C103 26-5 8 13-77c13-62 24-115 90-117 29-1 46 15 56 35l19-102h32L160 0h-30zM45-64c-2 27 10 43 35 43 54-1 69-50 69-103 0-29-15-46-42-46-53-1-58 58-62 106" id="W"/><path fill="#333" d="M51-54c-9 22 5 41 31 30L79-1C43 14 10-4 19-52l22-115H19l5-23h22l19-43h21l-9 43h35l-4 23H73" id="X"/><g id="a"><use transform="matrix(0.05,0,0,0.05,0,0)" xlink:href="#R"/><use transform="matrix(0.05,0,0,0.05,3.95,0)" xlink:href="#S"/><use transform="matrix(0.05,0,0,0.05,13.949999999999998,0)" xlink:href="#T"/><use transform="matrix(0.05,0,0,0.05,23.95,0)" xlink:href="#U"/><use transform="matrix(0.05,0,0,0.05,29.899999999999995,0)" xlink:href="#V"/><use transform="matrix(0.05,0,0,0.05,39.9,0)" xlink:href="#W"/><use transform="matrix(0.05,0,0,0.05,49.9,0)" xlink:href="#R"/><use transform="matrix(0.05,0,0,0.05,53.85,0)" xlink:href="#V"/><use transform="matrix(0.05,0,0,0.05,63.85,0)" xlink:href="#S"/><use transform="matrix(0.05,0,0,0.05,73.85,0)" xlink:href="#X"/></g><g id="b"><use transform="matrix(0.05,0,0,0.05,0,0)" xlink:href="#R"/><use transform="matrix(0.05,0,0,0.05,3.95,0)" xlink:href="#W"/></g><g id="c"><use transform="matrix(0.05,0,0,0.05,0,0)" xlink:href="#R"/><use transform="matrix(0.05,0,0,0.05,3.95,0)" xlink:href="#S"/><use transform="matrix(0.05,0,0,0.05,13.949999999999998,0)" xlink:href="#X"/><use transform="matrix(0.05,0,0,0.05,18.95,0)" xlink:href="#V"/><use transform="matrix(0.05,0,0,0.05,28.950000000000003,0)" xlink:href="#T"/><use transform="matrix(0.05,0,0,0.05,38.95,0)" xlink:href="#V"/><use transform="matrix(0.05,0,0,0.05,48.95,0)" xlink:href="#U"/></g><path fill="#333" d="M165-48c-4 18 1 34 23 27l-3 20c-29 8-62 0-52-35h-2C116-14 99 4 63 4 30 4 8-16 8-49c0-68 71-67 138-67 10-26 0-56-31-54-26 1-42 9-47 31l-32-5c8-67 160-71 144 15-5 28-9 54-15 81zM42-50c3 52 80 24 89-6 7-12 7-24 11-38-47 1-103-4-100 44" id="Y"/><path fill="#333" d="M248-111c6-24 9-61-24-58-72 9-57 108-77 169h-31l26-142c3-37-50-30-64-10C52-115 50-51 37 0H6l36-190h30c-1 10-6 24-4 32 13-43 101-52 105 5 13-22 29-41 61-41 90 0 28 129 23 194h-31" id="Z"/><g id="d"><use transform="matrix(0.05,0,0,0.05,0,0)" xlink:href="#S"/><use transform="matrix(0.05,0,0,0.05,10,0)" xlink:href="#Y"/><use transform="matrix(0.05,0,0,0.05,20,0)" xlink:href="#Z"/><use transform="matrix(0.05,0,0,0.05,34.95,0)" xlink:href="#V"/></g><path fill="#333" d="M55-144c13 50 104 24 104 88C159 21 15 23 1-39l26-10c6 40 102 42 102-4-13-50-104-23-104-87 0-71 143-71 148-8l-29 4c-5-35-85-37-89 0" id="aa"/><g id="e"><use transform="matrix(0.05,0,0,0.05,0,0)" xlink:href="#aa"/><use transform="matrix(0.05,0,0,0.05,9,0)" xlink:href="#X"/><use transform="matrix(0.05,0,0,0.05,14,0)" xlink:href="#U"/><use transform="matrix(0.05,0,0,0.05,19.95,0)" xlink:href="#R"/><use transform="matrix(0.05,0,0,0.05,23.9,0)" xlink:href="#S"/><use transform="matrix(0.05,0,0,0.05,33.9,0)" xlink:href="#T"/></g><path d="M96-169c-40 0-48 33-48 73s9 75 48 75c24 0 41-14 43-38l32 2c-6 37-31 61-74 61-59 0-76-41-82-99-10-93 101-131 147-64 4 7 5 14 7 22l-32 3c-4-21-16-35-41-35" id="ab"/><path d="M100-194c62-1 85 37 85 99 1 63-27 99-86 99S16-35 15-95c0-66 28-99 85-99zM99-20c44 1 53-31 53-75 0-43-8-75-51-75s-53 32-53 75 10 74 51 75" id="ac"/><path d="M117-194c89-4 53 116 60 194h-32v-121c0-31-8-49-39-48C34-167 62-67 57 0H25l-1-190h30c1 10-1 24 2 32 11-22 29-35 61-36" id="ad"/><path d="M59-47c-2 24 18 29 38 22v24C64 9 27 4 27-40v-127H5v-23h24l9-43h21v43h35v23H59v120" id="ae"/><path d="M141-36C126-15 110 5 73 4 37 3 15-17 15-53c-1-64 63-63 125-63 3-35-9-54-41-54-24 1-41 7-42 31l-33-3c5-37 33-52 76-52 45 0 72 20 72 64v82c-1 20 7 32 28 27v20c-31 9-61-2-59-35zM48-53c0 20 12 33 32 33 41-3 63-29 60-74-43 2-92-5-92 41" id="af"/><path d="M24-231v-30h32v30H24zM24 0v-190h32V0H24" id="ag"/><path d="M135-143c-3-34-86-38-87 0 15 53 115 12 119 90S17 21 10-45l28-5c4 36 97 45 98 0-10-56-113-15-118-90-4-57 82-63 122-42 12 7 21 19 24 35" id="ah"/><path d="M30-248c87 1 191-15 191 75 0 78-77 80-158 76V0H30v-248zm33 125c57 0 124 11 124-50 0-59-68-47-124-48v98" id="ai"/><path d="M100-194c63 0 86 42 84 106H49c0 40 14 67 53 68 26 1 43-12 49-29l28 8c-11 28-37 45-77 45C44 4 14-33 15-96c1-61 26-98 85-98zm52 81c6-60-76-77-97-28-3 7-6 17-6 28h103" id="aj"/><path d="M84 4C-5 8 30-112 23-190h32v120c0 31 7 50 39 49 72-2 45-101 50-169h31l1 190h-30c-1-10 1-25-2-33-11 22-28 36-60 37" id="ak"/><g id="f"><use transform="matrix(0.05,0,0,0.05,0,0)" xlink:href="#ab"/><use transform="matrix(0.05,0,0,0.05,9,0)" xlink:href="#ac"/><use transform="matrix(0.05,0,0,0.05,19,0)" xlink:href="#ad"/><use transform="matrix(0.05,0,0,0.05,29,0)" xlink:href="#ae"/><use transform="matrix(0.05,0,0,0.05,34,0)" xlink:href="#af"/><use transform="matrix(0.05,0,0,0.05,44,0)" xlink:href="#ag"/><use transform="matrix(0.05,0,0,0.05,47.95,0)" xlink:href="#ad"/><use transform="matrix(0.05,0,0,0.05,57.95,0)" xlink:href="#ah"/><use transform="matrix(0.05,0,0,0.05,66.95,0)" xlink:href="#ai"/><use transform="matrix(0.05,0,0,0.05,78.95,0)" xlink:href="#aj"/><use transform="matrix(0.05,0,0,0.05,88.95,0)" xlink:href="#af"/><use transform="matrix(0.05,0,0,0.05,98.95,0)" xlink:href="#ad"/><use transform="matrix(0.05,0,0,0.05,108.95,0)" xlink:href="#ak"/><use transform="matrix(0.05,0,0,0.05,118.95,0)" xlink:href="#ae"/></g><path fill="#333" d="M68-162c25-46 127-43 121 31C183-60 169 1 98 4 69 5 53-11 43-31L36 0H5l52-261h31zm88 36c2-27-9-43-34-43-55 0-70 51-70 103 0 29 15 45 43 46 52 0 58-58 61-106" id="al"/><path fill="#333" d="M30-147c31-64 166-65 159 27C183-49 158 1 86 4 9 8 1-88 30-147zM88-20c53 0 68-48 68-100 0-31-11-51-44-50-52 1-68 46-68 97 0 32 13 53 44 53" id="am"/><path fill="#333" d="M6 0l50-261h32L37 0H6" id="an"/><g id="g"><use transform="matrix(0.05,0,0,0.05,0,0)" xlink:href="#al"/><use transform="matrix(0.05,0,0,0.05,10,0)" xlink:href="#am"/><use transform="matrix(0.05,0,0,0.05,20,0)" xlink:href="#am"/><use transform="matrix(0.05,0,0,0.05,30,0)" xlink:href="#an"/><use transform="matrix(0.05,0,0,0.05,33.95,0)" xlink:href="#V"/><use transform="matrix(0.05,0,0,0.05,43.95,0)" xlink:href="#Y"/><use transform="matrix(0.05,0,0,0.05,53.95,0)" xlink:href="#S"/></g><path d="M30-248c118-7 216 8 213 122C240-48 200 0 122 0H30v-248zM63-27c89 8 146-16 146-99s-60-101-146-95v194" id="ao"/><path d="M114-163C36-179 61-72 57 0H25l-1-190h30c1 12-1 29 2 39 6-27 23-49 58-41v29" id="ap"/><path d="M179-190L93 31C79 59 56 82 12 73V49c39 6 53-20 64-50L1-190h34L92-34l54-156h33" id="aq"/><g id="h"><use transform="matrix(0.05,0,0,0.05,0,0)" xlink:href="#ab"/><use transform="matrix(0.05,0,0,0.05,9,0)" xlink:href="#ac"/><use transform="matrix(0.05,0,0,0.05,19,0)" xlink:href="#ad"/><use transform="matrix(0.05,0,0,0.05,29,0)" xlink:href="#ae"/><use transform="matrix(0.05,0,0,0.05,34,0)" xlink:href="#af"/><use transform="matrix(0.05,0,0,0.05,44,0)" xlink:href="#ag"/><use transform="matrix(0.05,0,0,0.05,47.95,0)" xlink:href="#ad"/><use transform="matrix(0.05,0,0,0.05,57.95,0)" xlink:href="#ah"/><use transform="matrix(0.05,0,0,0.05,66.95,0)" xlink:href="#ao"/><use transform="matrix(0.05,0,0,0.05,79.9,0)" xlink:href="#af"/><use transform="matrix(0.05,0,0,0.05,89.9,0)" xlink:href="#ag"/><use transform="matrix(0.05,0,0,0.05,93.85000000000001,0)" xlink:href="#ap"/><use transform="matrix(0.05,0,0,0.05,99.80000000000001,0)" xlink:href="#aq"/></g><path d="M30 0v-248h187v28H63v79h144v27H63v87h162V0H30" id="ar"/><path d="M177-190C167-65 218 103 67 71c-23-6-38-20-44-43l32-5c15 47 100 32 89-28v-30C133-14 115 1 83 1 29 1 15-40 15-95c0-56 16-97 71-98 29-1 48 16 59 35 1-10 0-23 2-32h30zM94-22c36 0 50-32 50-73 0-42-14-75-50-75-39 0-46 34-46 75s6 73 46 73" id="as"/><g id="i"><use transform="matrix(0.05,0,0,0.05,0,0)" xlink:href="#ab"/><use transform="matrix(0.05,0,0,0.05,9,0)" xlink:href="#ac"/><use transform="matrix(0.05,0,0,0.05,19,0)" xlink:href="#ad"/><use transform="matrix(0.05,0,0,0.05,29,0)" xlink:href="#ae"/><use transform="matrix(0.05,0,0,0.05,34,0)" xlink:href="#af"/><use transform="matrix(0.05,0,0,0.05,44,0)" xlink:href="#ag"/><use transform="matrix(0.05,0,0,0.05,47.95,0)" xlink:href="#ad"/><use transform="matrix(0.05,0,0,0.05,57.95,0)" xlink:href="#ah"/><use transform="matrix(0.05,0,0,0.05,66.95,0)" xlink:href="#ar"/><use transform="matrix(0.05,0,0,0.05,78.95,0)" xlink:href="#as"/><use transform="matrix(0.05,0,0,0.05,88.95,0)" xlink:href="#as"/></g><path d="M143 4C61 4 22-44 18-125c-5-107 100-154 193-111 17 8 29 25 37 43l-32 9c-13-25-37-40-76-40-61 0-88 39-88 99 0 61 29 100 91 101 35 0 62-11 79-27v-45h-74v-28h105v86C228-13 192 4 143 4" id="at"/><path d="M24 0v-261h32V0H24" id="au"/><g id="j"><use transform="matrix(0.05,0,0,0.05,0,0)" xlink:href="#ab"/><use transform="matrix(0.05,0,0,0.05,9,0)" xlink:href="#ac"/><use transform="matrix(0.05,0,0,0.05,19,0)" xlink:href="#ad"/><use transform="matrix(0.05,0,0,0.05,29,0)" xlink:href="#ae"/><use transform="matrix(0.05,0,0,0.05,34,0)" xlink:href="#af"/><use transform="matrix(0.05,0,0,0.05,44,0)" xlink:href="#ag"/><use transform="matrix(0.05,0,0,0.05,47.95,0)" xlink:href="#ad"/><use transform="matrix(0.05,0,0,0.05,57.95,0)" xlink:href="#ah"/><use transform="matrix(0.05,0,0,0.05,66.95,0)" xlink:href="#at"/><use transform="matrix(0.05,0,0,0.05,80.95,0)" xlink:href="#au"/><use transform="matrix(0.05,0,0,0.05,84.9,0)" xlink:href="#ak"/><use transform="matrix(0.05,0,0,0.05,94.9,0)" xlink:href="#ae"/><use transform="matrix(0.05,0,0,0.05,99.9,0)" xlink:href="#aj"/><use transform="matrix(0.05,0,0,0.05,109.9,0)" xlink:href="#ad"/></g><path d="M185-189c-5-48-123-54-124 2 14 75 158 14 163 119 3 78-121 87-175 55-17-10-28-26-33-46l33-7c5 56 141 63 141-1 0-78-155-14-162-118-5-82 145-84 179-34 5 7 8 16 11 25" id="av"/><path d="M101-234c-31-9-42 10-38 44h38v23H63V0H32v-167H5v-23h27c-7-52 17-82 69-68v24" id="aw"/><path d="M85-194c31 0 48 13 60 33l-1-100h32l1 261h-30c-2-10 0-23-3-31C134-8 116 4 85 4 32 4 16-35 15-94c0-66 23-100 70-100zm9 24c-40 0-46 34-46 75 0 40 6 74 45 74 42 0 51-32 51-76 0-42-9-74-50-73" id="ax"/><g id="k"><use transform="matrix(0.05,0,0,0.05,0,0)" xlink:href="#ab"/><use transform="matrix(0.05,0,0,0.05,9,0)" xlink:href="#ac"/><use transform="matrix(0.05,0,0,0.05,19,0)" xlink:href="#ad"/><use transform="matrix(0.05,0,0,0.05,29,0)" xlink:href="#ae"/><use transform="matrix(0.05,0,0,0.05,34,0)" xlink:href="#af"/><use transform="matrix(0.05,0,0,0.05,44,0)" xlink:href="#ag"/><use transform="matrix(0.05,0,0,0.05,47.95,0)" xlink:href="#ad"/><use transform="matrix(0.05,0,0,0.05,57.95,0)" xlink:href="#ah"/><use transform="matrix(0.05,0,0,0.05,66.95,0)" xlink:href="#av"/><use transform="matrix(0.05,0,0,0.05,78.95,0)" xlink:href="#aj"/><use transform="matrix(0.05,0,0,0.05,88.95,0)" xlink:href="#af"/><use transform="matrix(0.05,0,0,0.05,98.95,0)" xlink:href="#aw"/><use transform="matrix(0.05,0,0,0.05,103.95,0)" xlink:href="#ac"/><use transform="matrix(0.05,0,0,0.05,113.95,0)" xlink:href="#ac"/><use transform="matrix(0.05,0,0,0.05,123.95,0)" xlink:href="#ax"/></g><path d="M210-169c-67 3-38 105-44 169h-31v-121c0-29-5-50-35-48C34-165 62-65 56 0H25l-1-190h30c1 10-1 24 2 32 10-44 99-50 107 0 11-21 27-35 58-36 85-2 47 119 55 194h-31v-121c0-29-5-49-35-48" id="ay"/><g id="l"><use transform="matrix(0.05,0,0,0.05,0,0)" xlink:href="#ab"/><use transform="matrix(0.05,0,0,0.05,9,0)" xlink:href="#ac"/><use transform="matrix(0.05,0,0,0.05,19,0)" xlink:href="#ad"/><use transform="matrix(0.05,0,0,0.05,29,0)" xlink:href="#ae"/><use transform="matrix(0.05,0,0,0.05,34,0)" xlink:href="#af"/><use transform="matrix(0.05,0,0,0.05,44,0)" xlink:href="#ag"/><use transform="matrix(0.05,0,0,0.05,47.95,0)" xlink:href="#ad"/><use transform="matrix(0.05,0,0,0.05,57.95,0)" xlink:href="#ah"/><use transform="matrix(0.05,0,0,0.05,66.95,0)" xlink:href="#av"/><use transform="matrix(0.05,0,0,0.05,78.95,0)" xlink:href="#aj"/><use transform="matrix(0.05,0,0,0.05,88.95,0)" xlink:href="#ah"/><use transform="matrix(0.05,0,0,0.05,97.95,0)" xlink:href="#af"/><use transform="matrix(0.05,0,0,0.05,107.95,0)" xlink:href="#ay"/><use transform="matrix(0.05,0,0,0.05,122.9,0)" xlink:href="#aj"/></g><path d="M106-169C34-169 62-67 57 0H25v-261h32l-1 103c12-21 28-36 61-36 89 0 53 116 60 194h-32v-121c2-32-8-49-39-48" id="az"/><g id="m"><use transform="matrix(0.05,0,0,0.05,0,0)" xlink:href="#ab"/><use transform="matrix(0.05,0,0,0.05,9,0)" xlink:href="#ac"/><use transform="matrix(0.05,0,0,0.05,19,0)" xlink:href="#ad"/><use transform="matrix(0.05,0,0,0.05,29,0)" xlink:href="#ae"/><use transform="matrix(0.05,0,0,0.05,34,0)" xlink:href="#af"/><use transform="matrix(0.05,0,0,0.05,44,0)" xlink:href="#ag"/><use transform="matrix(0.05,0,0,0.05,47.95,0)" xlink:href="#ad"/><use transform="matrix(0.05,0,0,0.05,57.95,0)" xlink:href="#ah"/><use transform="matrix(0.05,0,0,0.05,66.95,0)" xlink:href="#av"/><use transform="matrix(0.05,0,0,0.05,78.95,0)" xlink:href="#az"/><use transform="matrix(0.05,0,0,0.05,88.95,0)" xlink:href="#aj"/><use transform="matrix(0.05,0,0,0.05,98.95,0)" xlink:href="#au"/><use transform="matrix(0.05,0,0,0.05,102.9,0)" xlink:href="#au"/><use transform="matrix(0.05,0,0,0.05,106.85000000000001,0)" xlink:href="#aw"/><use transform="matrix(0.05,0,0,0.05,111.85000000000001,0)" xlink:href="#ag"/><use transform="matrix(0.05,0,0,0.05,115.80000000000001,0)" xlink:href="#ah"/><use transform="matrix(0.05,0,0,0.05,124.80000000000001,0)" xlink:href="#az"/></g><g id="n"><use transform="matrix(0.05,0,0,0.05,0,0)" xlink:href="#ab"/><use transform="matrix(0.05,0,0,0.05,9,0)" xlink:href="#ac"/><use transform="matrix(0.05,0,0,0.05,19,0)" xlink:href="#ad"/><use transform="matrix(0.05,0,0,0.05,29,0)" xlink:href="#ae"/><use transform="matrix(0.05,0,0,0.05,34,0)" xlink:href="#af"/><use transform="matrix(0.05,0,0,0.05,44,0)" xlink:href="#ag"/><use transform="matrix(0.05,0,0,0.05,47.95,0)" xlink:href="#ad"/><use transform="matrix(0.05,0,0,0.05,57.95,0)" xlink:href="#ae"/><use transform="matrix(0.05,0,0,0.05,62.95,0)" xlink:href="#ah"/><use transform="matrix(0.05,0,0,0.05,71.95,0)" xlink:href="#av"/><use transform="matrix(0.05,0,0,0.05,83.95,0)" xlink:href="#ac"/><use transform="matrix(0.05,0,0,0.05,93.95,0)" xlink:href="#aq"/></g><path d="M240 0l2-218c-23 76-54 145-80 218h-23L58-218 59 0H30v-248h44l77 211c21-75 51-140 76-211h43V0h-30" id="aA"/><g id="o"><use transform="matrix(0.05,0,0,0.05,0,0)" xlink:href="#ab"/><use transform="matrix(0.05,0,0,0.05,9,0)" xlink:href="#ac"/><use transform="matrix(0.05,0,0,0.05,19,0)" xlink:href="#ad"/><use transform="matrix(0.05,0,0,0.05,29,0)" xlink:href="#ae"/><use transform="matrix(0.05,0,0,0.05,34,0)" xlink:href="#af"/><use transform="matrix(0.05,0,0,0.05,44,0)" xlink:href="#ag"/><use transform="matrix(0.05,0,0,0.05,47.95,0)" xlink:href="#ad"/><use transform="matrix(0.05,0,0,0.05,57.95,0)" xlink:href="#ah"/><use transform="matrix(0.05,0,0,0.05,66.95,0)" xlink:href="#aA"/><use transform="matrix(0.05,0,0,0.05,81.9,0)" xlink:href="#aj"/><use transform="matrix(0.05,0,0,0.05,91.9,0)" xlink:href="#af"/><use transform="matrix(0.05,0,0,0.05,101.9,0)" xlink:href="#ae"/></g><path d="M127-220V0H93v-220H8v-28h204v28h-85" id="aB"/><g id="p"><use transform="matrix(0.05,0,0,0.05,0,0)" xlink:href="#ab"/><use transform="matrix(0.05,0,0,0.05,9,0)" xlink:href="#ac"/><use transform="matrix(0.05,0,0,0.05,19,0)" xlink:href="#ad"/><use transform="matrix(0.05,0,0,0.05,29,0)" xlink:href="#ae"/><use transform="matrix(0.05,0,0,0.05,34,0)" xlink:href="#af"/><use transform="matrix(0.05,0,0,0.05,44,0)" xlink:href="#ag"/><use transform="matrix(0.05,0,0,0.05,47.95,0)" xlink:href="#ad"/><use transform="matrix(0.05,0,0,0.05,57.95,0)" xlink:href="#ah"/><use transform="matrix(0.05,0,0,0.05,66.95,0)" xlink:href="#aB"/><use transform="matrix(0.05,0,0,0.05,77.25,0)" xlink:href="#ap"/><use transform="matrix(0.05,0,0,0.05,83.2,0)" xlink:href="#aj"/><use transform="matrix(0.05,0,0,0.05,93.2,0)" xlink:href="#aj"/><use transform="matrix(0.05,0,0,0.05,103.2,0)" xlink:href="#ad"/><use transform="matrix(0.05,0,0,0.05,113.2,0)" xlink:href="#ak"/><use transform="matrix(0.05,0,0,0.05,123.2,0)" xlink:href="#ae"/><use transform="matrix(0.05,0,0,0.05,128.2,0)" xlink:href="#ah"/></g><path d="M266 0h-40l-56-210L115 0H75L2-248h35L96-30l15-64 43-154h32l59 218 59-218h35" id="aC"/><g id="q"><use transform="matrix(0.05,0,0,0.05,0,0)" xlink:href="#ab"/><use transform="matrix(0.05,0,0,0.05,9,0)" xlink:href="#ac"/><use transform="matrix(0.05,0,0,0.05,19,0)" xlink:href="#ad"/><use transform="matrix(0.05,0,0,0.05,29,0)" xlink:href="#ae"/><use transform="matrix(0.05,0,0,0.05,34,0)" xlink:href="#af"/><use transform="matrix(0.05,0,0,0.05,44,0)" xlink:href="#ag"/><use transform="matrix(0.05,0,0,0.05,47.95,0)" xlink:href="#ad"/><use transform="matrix(0.05,0,0,0.05,57.95,0)" xlink:href="#ah"/><use transform="matrix(0.05,0,0,0.05,66.95,0)" xlink:href="#aC"/><use transform="matrix(0.05,0,0,0.05,83.9,0)" xlink:href="#az"/><use transform="matrix(0.05,0,0,0.05,93.9,0)" xlink:href="#aj"/><use transform="matrix(0.05,0,0,0.05,103.9,0)" xlink:href="#af"/><use transform="matrix(0.05,0,0,0.05,113.9,0)" xlink:href="#ae"/></g><path fill="#333" d="M249-183c0 48-29 72-75 77L221 0h-36l-43-103H65L45 0H11l48-248c83 2 190-17 190 65zm-34 3c0-55-74-39-127-41l-18 92c63-1 145 13 145-51" id="aD"/><path fill="#333" d="M44-68c0 29 11 47 38 47 30 0 42-19 51-41l28 9C148-21 126 4 82 4 31 4 10-29 12-85c3-77 74-140 146-93 12 8 15 23 18 40l-31 5c-1-22-13-36-36-36-52 0-65 49-65 101" id="aE"/><path fill="#333" d="M67-162c32-53 139-36 121 50C175-51 163 2 97 4 68 4 52-11 42-31 38 6 28 39 22 75H-9l50-265h29c-1 10 0 20-3 28zm89 36c0-26-10-43-35-43-54 0-67 50-69 103-1 29 14 45 42 46 53 0 62-58 62-106" id="aF"/><g id="r"><use transform="matrix(0.05,0,0,0.05,0,0)" xlink:href="#aD"/><use transform="matrix(0.05,0,0,0.05,12.950000000000001,0)" xlink:href="#V"/><use transform="matrix(0.05,0,0,0.05,22.950000000000003,0)" xlink:href="#aE"/><use transform="matrix(0.05,0,0,0.05,31.950000000000003,0)" xlink:href="#R"/><use transform="matrix(0.05,0,0,0.05,35.900000000000006,0)" xlink:href="#aF"/><use transform="matrix(0.05,0,0,0.05,45.900000000000006,0)" xlink:href="#V"/></g><g id="s"><use transform="matrix(0.05,0,0,0.05,0,0)" xlink:href="#ad"/><use transform="matrix(0.05,0,0,0.05,10,0)" xlink:href="#af"/><use transform="matrix(0.05,0,0,0.05,20,0)" xlink:href="#ay"/><use transform="matrix(0.05,0,0,0.05,34.95,0)" xlink:href="#aj"/></g><g id="t"><use transform="matrix(0.05,0,0,0.05,0,0)" xlink:href="#ah"/><use transform="matrix(0.05,0,0,0.05,9,0)" xlink:href="#ae"/><use transform="matrix(0.05,0,0,0.05,14,0)" xlink:href="#ap"/><use transform="matrix(0.05,0,0,0.05,19.95,0)" xlink:href="#ag"/><use transform="matrix(0.05,0,0,0.05,23.9,0)" xlink:href="#ad"/><use transform="matrix(0.05,0,0,0.05,33.9,0)" xlink:href="#as"/></g><path d="M232-93c-1 65-40 97-104 97C67 4 28-28 28-90v-158h33c8 89-33 224 67 224 102 0 64-133 71-224h33v155" id="aG"/><g id="u"><use transform="matrix(0.05,0,0,0.05,0,0)" xlink:href="#ag"/><use transform="matrix(0.05,0,0,0.05,3.95,0)" xlink:href="#ay"/><use transform="matrix(0.05,0,0,0.05,18.900000000000002,0)" xlink:href="#af"/><use transform="matrix(0.05,0,0,0.05,28.900000000000002,0)" xlink:href="#as"/><use transform="matrix(0.05,0,0,0.05,38.900000000000006,0)" xlink:href="#aj"/><use transform="matrix(0.05,0,0,0.05,48.900000000000006,0)" xlink:href="#aG"/><use transform="matrix(0.05,0,0,0.05,61.85,0)" xlink:href="#ap"/><use transform="matrix(0.05,0,0,0.05,67.80000000000001,0)" xlink:href="#au"/></g><g id="v"><use transform="matrix(0.05,0,0,0.05,0,0)" xlink:href="#ag"/><use transform="matrix(0.05,0,0,0.05,3.95,0)" xlink:href="#ad"/><use transform="matrix(0.05,0,0,0.05,13.949999999999998,0)" xlink:href="#ah"/><use transform="matrix(0.05,0,0,0.05,22.95,0)" xlink:href="#ae"/><use transform="matrix(0.05,0,0,0.05,27.950000000000003,0)" xlink:href="#ap"/><use transform="matrix(0.05,0,0,0.05,33.9,0)" xlink:href="#ak"/><use transform="matrix(0.05,0,0,0.05,43.9,0)" xlink:href="#ab"/><use transform="matrix(0.05,0,0,0.05,52.900000000000006,0)" xlink:href="#ae"/><use transform="matrix(0.05,0,0,0.05,57.900000000000006,0)" xlink:href="#ag"/><use transform="matrix(0.05,0,0,0.05,61.85,0)" xlink:href="#ac"/><use transform="matrix(0.05,0,0,0.05,71.85,0)" xlink:href="#ad"/><use transform="matrix(0.05,0,0,0.05,81.85,0)" xlink:href="#ah"/></g><path d="M141 0L90-78 38 0H4l68-98-65-92h35l48 74 47-74h35l-64 92 68 98h-35" id="aH"/><g id="w"><use transform="matrix(0.05,0,0,0.05,0,0)" xlink:href="#ae"/><use transform="matrix(0.05,0,0,0.05,5,0)" xlink:href="#aj"/><use transform="matrix(0.05,0,0,0.05,15,0)" xlink:href="#aH"/><use transform="matrix(0.05,0,0,0.05,24,0)" xlink:href="#ae"/></g><path d="M115-194c55 1 70 41 70 98S169 2 115 4C84 4 66-9 55-30l1 105H24l-1-265h31l2 30c10-21 28-34 59-34zm-8 174c40 0 45-34 45-75s-6-73-45-74c-42 0-51 32-51 76 0 43 10 73 51 73" id="aI"/><g id="x"><use transform="matrix(0.05,0,0,0.05,0,0)" xlink:href="#aI"/><use transform="matrix(0.05,0,0,0.05,10,0)" xlink:href="#ap"/><use transform="matrix(0.05,0,0,0.05,15.949999999999998,0)" xlink:href="#aj"/><use transform="matrix(0.05,0,0,0.05,25.950000000000003,0)" xlink:href="#aI"/><use transform="matrix(0.05,0,0,0.05,35.95,0)" xlink:href="#aj"/><use transform="matrix(0.05,0,0,0.05,45.95,0)" xlink:href="#ap"/><use transform="matrix(0.05,0,0,0.05,51.900000000000006,0)" xlink:href="#af"/><use transform="matrix(0.05,0,0,0.05,61.900000000000006,0)" xlink:href="#ae"/><use transform="matrix(0.05,0,0,0.05,66.9,0)" xlink:href="#ag"/><use transform="matrix(0.05,0,0,0.05,70.85000000000001,0)" xlink:href="#ac"/><use transform="matrix(0.05,0,0,0.05,80.85000000000001,0)" xlink:href="#ad"/><use transform="matrix(0.05,0,0,0.05,90.85000000000001,0)" xlink:href="#aB"/><use transform="matrix(0.05,0,0,0.05,101.15,0)" xlink:href="#ag"/><use transform="matrix(0.05,0,0,0.05,105.10000000000001,0)" xlink:href="#ay"/><use transform="matrix(0.05,0,0,0.05,120.05000000000001,0)" xlink:href="#aj"/></g><g id="y"><use transform="matrix(0.05,0,0,0.05,0,0)" xlink:href="#ag"/><use transform="matrix(0.05,0,0,0.05,3.95,0)" xlink:href="#ad"/><use transform="matrix(0.05,0,0,0.05,13.949999999999998,0)" xlink:href="#ae"/><use transform="matrix(0.05,0,0,0.05,18.95,0)" xlink:href="#aj"/><use transform="matrix(0.05,0,0,0.05,28.950000000000003,0)" xlink:href="#as"/><use transform="matrix(0.05,0,0,0.05,38.95,0)" xlink:href="#aj"/><use transform="matrix(0.05,0,0,0.05,48.95,0)" xlink:href="#ap"/></g><path d="M33 0v-248h34V0H33" id="aJ"/><g id="z"><use transform="matrix(0.05,0,0,0.05,0,0)" xlink:href="#ak"/><use transform="matrix(0.05,0,0,0.05,10,0)" xlink:href="#ah"/><use transform="matrix(0.05,0,0,0.05,19,0)" xlink:href="#aj"/><use transform="matrix(0.05,0,0,0.05,29,0)" xlink:href="#ap"/><use transform="matrix(0.05,0,0,0.05,34.95,0)" xlink:href="#aJ"/><use transform="matrix(0.05,0,0,0.05,39.95,0)" xlink:href="#ax"/></g><path d="M108 0H70L1-190h34L89-25l56-165h34" id="aK"/><g id="A"><use transform="matrix(0.05,0,0,0.05,0,0)" xlink:href="#aw"/><use transform="matrix(0.05,0,0,0.05,5,0)" xlink:href="#au"/><use transform="matrix(0.05,0,0,0.05,8.95,0)" xlink:href="#af"/><use transform="matrix(0.05,0,0,0.05,18.95,0)" xlink:href="#aK"/><use transform="matrix(0.05,0,0,0.05,27.950000000000003,0)" xlink:href="#ac"/><use transform="matrix(0.05,0,0,0.05,37.95,0)" xlink:href="#ak"/><use transform="matrix(0.05,0,0,0.05,47.95,0)" xlink:href="#ap"/><use transform="matrix(0.05,0,0,0.05,53.900000000000006,0)" xlink:href="#ai"/><use transform="matrix(0.05,0,0,0.05,65.9,0)" xlink:href="#ap"/><use transform="matrix(0.05,0,0,0.05,71.85000000000001,0)" xlink:href="#ac"/><use transform="matrix(0.05,0,0,0.05,81.85000000000001,0)" xlink:href="#aw"/><use transform="matrix(0.05,0,0,0.05,86.85000000000001,0)" xlink:href="#ag"/><use transform="matrix(0.05,0,0,0.05,90.80000000000001,0)" xlink:href="#au"/><use transform="matrix(0.05,0,0,0.05,94.75000000000001,0)" xlink:href="#aj"/></g><g id="B"><use transform="matrix(0.05,0,0,0.05,0,0)" xlink:href="#ax"/><use transform="matrix(0.05,0,0,0.05,10,0)" xlink:href="#ag"/><use transform="matrix(0.05,0,0,0.05,13.949999999999998,0)" xlink:href="#ah"/><use transform="matrix(0.05,0,0,0.05,22.95,0)" xlink:href="#az"/><use transform="matrix(0.05,0,0,0.05,32.95,0)" xlink:href="#aB"/><use transform="matrix(0.05,0,0,0.05,42.900000000000006,0)" xlink:href="#aq"/><use transform="matrix(0.05,0,0,0.05,51.900000000000006,0)" xlink:href="#aI"/><use transform="matrix(0.05,0,0,0.05,61.900000000000006,0)" xlink:href="#aj"/></g><path fill="#333" d="M62-99C39-31 123 0 170-40s38-139 58-208h34C234-144 253 4 115 4 49 4 18-43 31-112l26-136h34" id="aL"/><g id="C"><use transform="matrix(0.05,0,0,0.05,0,0)" xlink:href="#aL"/><use transform="matrix(0.05,0,0,0.05,12.950000000000001,0)" xlink:href="#aa"/><use transform="matrix(0.05,0,0,0.05,21.950000000000003,0)" xlink:href="#V"/><use transform="matrix(0.05,0,0,0.05,31.950000000000003,0)" xlink:href="#U"/></g><g id="D"><use transform="matrix(0.05,0,0,0.05,0,0)" xlink:href="#V"/><use transform="matrix(0.05,0,0,0.05,10,0)" xlink:href="#Z"/><use transform="matrix(0.05,0,0,0.05,24.950000000000003,0)" xlink:href="#Y"/><use transform="matrix(0.05,0,0,0.05,34.95,0)" xlink:href="#R"/><use transform="matrix(0.05,0,0,0.05,38.900000000000006,0)" xlink:href="#an"/></g><path fill="#333" d="M188 0h-37l-8-164L71 0H34L18-190h31l8 164 75-164h34l8 164 74-164h31" id="aM"/><g id="E"><use transform="matrix(0.05,0,0,0.05,0,0)" xlink:href="#aF"/><use transform="matrix(0.05,0,0,0.05,10,0)" xlink:href="#Y"/><use transform="matrix(0.05,0,0,0.05,20,0)" xlink:href="#aa"/><use transform="matrix(0.05,0,0,0.05,29,0)" xlink:href="#aa"/><use transform="matrix(0.05,0,0,0.05,38,0)" xlink:href="#aM"/><use transform="matrix(0.05,0,0,0.05,50.95,0)" xlink:href="#am"/><use transform="matrix(0.05,0,0,0.05,60.95,0)" xlink:href="#U"/><use transform="matrix(0.05,0,0,0.05,66.9,0)" xlink:href="#W"/></g><path fill="#a9afb8" d="M153-248C145-148 188 4 80 4 36 3 13-21 6-62l32-5c4 25 16 42 43 43 27 0 39-20 39-49v-147H72v-28h81" id="aN"/><path fill="#a9afb8" d="M100-194c63 0 86 42 84 106H49c0 40 14 67 53 68 26 1 43-12 49-29l28 8c-11 28-37 45-77 45C44 4 14-33 15-96c1-61 26-98 85-98zm52 81c6-60-76-77-97-28-3 7-6 17-6 28h103" id="aO"/><path fill="#a9afb8" d="M117-194c89-4 53 116 60 194h-32v-121c0-31-8-49-39-48C34-167 62-67 57 0H25l-1-190h30c1 10-1 24 2 32 11-22 29-35 61-36" id="aP"/><path fill="#a9afb8" d="M24-231v-30h32v30H24zM24 0v-190h32V0H24" id="aQ"/><g id="F"><use transform="matrix(0.04248971193415638,0,0,0.04248971193415638,0,0)" xlink:href="#aN"/><use transform="matrix(0.04248971193415638,0,0,0.04248971193415638,7.648148148148148,0)" xlink:href="#aO"/><use transform="matrix(0.04248971193415638,0,0,0.04248971193415638,16.14609053497942,0)" xlink:href="#aP"/><use transform="matrix(0.04248971193415638,0,0,0.04248971193415638,24.644032921810698,0)" xlink:href="#aP"/><use transform="matrix(0.04248971193415638,0,0,0.04248971193415638,33.141975308641975,0)" xlink:href="#aQ"/></g><path fill="#a9afb8" d="M32 76v-337h29V76H32" id="aR"/><use transform="matrix(0.04248971193415638,0,0,0.04248971193415638,0,0)" xlink:href="#aR" id="G"/><path fill="#a9afb8" d="M84 4C-5 8 30-112 23-190h32v120c0 31 7 50 39 49 72-2 45-101 50-169h31l1 190h-30c-1-10 1-25-2-33-11 22-28 36-60 37" id="aS"/><path fill="#a9afb8" d="M24 0v-261h32V0H24" id="aT"/><path fill="#a9afb8" d="M179-190L93 31C79 59 56 82 12 73V49c39 6 53-20 64-50L1-190h34L92-34l54-156h33" id="aU"/><g id="H"><use transform="matrix(0.04248971193415638,0,0,0.04248971193415638,0,0)" xlink:href="#aN"/><use transform="matrix(0.04248971193415638,0,0,0.04248971193415638,7.648148148148148,0)" xlink:href="#aS"/><use transform="matrix(0.04248971193415638,0,0,0.04248971193415638,16.14609053497942,0)" xlink:href="#aT"/><use transform="matrix(0.04248971193415638,0,0,0.04248971193415638,19.502777777777776,0)" xlink:href="#aU"/></g><path fill="#a9afb8" d="M27 0v-27h64v-190l-56 39v-29l58-41h29v221h61V0H27" id="aV"/><path fill="#a9afb8" d="M101-251c68 0 85 55 85 127S166 4 100 4C33 4 14-52 14-124c0-73 17-127 87-127zm-1 229c47 0 54-49 54-102s-4-102-53-102c-51 0-55 48-55 102 0 53 5 102 54 102" id="aW"/><path fill="#a9afb8" d="M68-38c1 34 0 65-14 84H32c9-13 17-26 17-46H33v-38h35" id="aX"/><g id="I"><use transform="matrix(0.04248971193415638,0,0,0.04248971193415638,0,0)" xlink:href="#aV"/><use transform="matrix(0.04248971193415638,0,0,0.04248971193415638,8.497942386831275,0)" xlink:href="#aW"/><use transform="matrix(0.04248971193415638,0,0,0.04248971193415638,16.99588477366255,0)" xlink:href="#aX"/></g><path fill="#a9afb8" d="M101-251c82-7 93 87 43 132L82-64C71-53 59-42 53-27h129V0H18c2-99 128-94 128-182 0-28-16-43-45-43s-46 15-49 41l-32-3c6-41 34-60 81-64" id="aY"/><g id="J"><use transform="matrix(0.04248971193415638,0,0,0.04248971193415638,0,0)" xlink:href="#aY"/><use transform="matrix(0.04248971193415638,0,0,0.04248971193415638,8.497942386831275,0)" xlink:href="#aW"/><use transform="matrix(0.04248971193415638,0,0,0.04248971193415638,16.99588477366255,0)" xlink:href="#aY"/><use transform="matrix(0.04248971193415638,0,0,0.04248971193415638,25.493827160493822,0)" xlink:href="#aW"/></g><path fill="#333" d="M101-251c68 0 85 55 85 127S166 4 100 4C33 4 14-52 14-124c0-73 17-127 87-127zm-1 229c47 0 54-49 54-102s-4-102-53-102c-51 0-55 48-55 102 0 53 5 102 54 102" id="aZ"/><path fill="#333" d="M33 0v-38h34V0H33" id="ba"/><path fill="#333" d="M190 0L58-211 59 0H30v-248h39L202-35l-2-213h31V0h-41" id="bb"/><g id="K"><use transform="matrix(0.05,0,0,0.05,0,0)" xlink:href="#aZ"/><use transform="matrix(0.05,0,0,0.05,10,0)" xlink:href="#ba"/><use transform="matrix(0.05,0,0,0.05,15,0)" xlink:href="#ba"/><use transform="matrix(0.05,0,0,0.05,20,0)" xlink:href="#bb"/></g><path fill="#333" d="M27 0v-27h64v-190l-56 39v-29l58-41h29v221h61V0H27" id="bc"/><use transform="matrix(0.05,0,0,0.05,0,0)" xlink:href="#bc" id="L"/><g id="M"><use transform="matrix(0.05,0,0,0.05,0,0)" xlink:href="#aZ"/><use transform="matrix(0.05,0,0,0.05,10,0)" xlink:href="#ba"/><use transform="matrix(0.05,0,0,0.05,15,0)" xlink:href="#ba"/><use transform="matrix(0.05,0,0,0.05,20,0)" xlink:href="#ba"/><use transform="matrix(0.05,0,0,0.05,25,0)" xlink:href="#bb"/></g><path fill="#333" d="M14 0l48-248h34L48 0H14" id="bd"/><g id="N"><use transform="matrix(0.05,0,0,0.05,0,0)" xlink:href="#U"/><use transform="matrix(0.05,0,0,0.05,5.95,0)" xlink:href="#V"/><use transform="matrix(0.05,0,0,0.05,15.949999999999998,0)" xlink:href="#aE"/><use transform="matrix(0.05,0,0,0.05,24.95,0)" xlink:href="#R"/><use transform="matrix(0.05,0,0,0.05,28.899999999999995,0)" xlink:href="#aF"/><use transform="matrix(0.05,0,0,0.05,38.9,0)" xlink:href="#V"/><use transform="matrix(0.05,0,0,0.05,48.9,0)" xlink:href="#bd"/><use transform="matrix(0.05,0,0,0.05,53.900000000000006,0)" xlink:href="#S"/><use transform="matrix(0.05,0,0,0.05,63.900000000000006,0)" xlink:href="#T"/><use transform="matrix(0.05,0,0,0.05,73.9,0)" xlink:href="#U"/><use transform="matrix(0.05,0,0,0.05,79.85000000000001,0)" xlink:href="#V"/><use transform="matrix(0.05,0,0,0.05,89.85000000000001,0)" xlink:href="#W"/><use transform="matrix(0.05,0,0,0.05,99.85000000000001,0)" xlink:href="#R"/><use transform="matrix(0.05,0,0,0.05,103.80000000000001,0)" xlink:href="#V"/><use transform="matrix(0.05,0,0,0.05,113.80000000000001,0)" xlink:href="#S"/><use transform="matrix(0.05,0,0,0.05,123.80000000000001,0)" xlink:href="#X"/><use transform="matrix(0.05,0,0,0.05,128.8,0)" xlink:href="#aa"/></g><g id="O"><use transform="matrix(0.05,0,0,0.05,0,0)" xlink:href="#U"/><use transform="matrix(0.05,0,0,0.05,5.95,0)" xlink:href="#V"/><use transform="matrix(0.05,0,0,0.05,15.949999999999998,0)" xlink:href="#aE"/><use transform="matrix(0.05,0,0,0.05,24.95,0)" xlink:href="#R"/><use transform="matrix(0.05,0,0,0.05,28.899999999999995,0)" xlink:href="#aF"/><use transform="matrix(0.05,0,0,0.05,38.9,0)" xlink:href="#V"/><use transform="matrix(0.05,0,0,0.05,48.9,0)" xlink:href="#bd"/><use transform="matrix(0.05,0,0,0.05,53.900000000000006,0)" xlink:href="#W"/></g><g id="P"><use transform="matrix(0.05,0,0,0.05,0,0)" xlink:href="#R"/><use transform="matrix(0.05,0,0,0.05,3.95,0)" xlink:href="#S"/><use transform="matrix(0.05,0,0,0.05,13.949999999999998,0)" xlink:href="#T"/><use transform="matrix(0.05,0,0,0.05,23.95,0)" xlink:href="#U"/><use transform="matrix(0.05,0,0,0.05,29.899999999999995,0)" xlink:href="#V"/><use transform="matrix(0.05,0,0,0.05,39.9,0)" xlink:href="#W"/><use transform="matrix(0.05,0,0,0.05,49.9,0)" xlink:href="#R"/><use transform="matrix(0.05,0,0,0.05,53.85,0)" xlink:href="#V"/><use transform="matrix(0.05,0,0,0.05,63.85,0)" xlink:href="#S"/><use transform="matrix(0.05,0,0,0.05,73.85,0)" xlink:href="#X"/><use transform="matrix(0.05,0,0,0.05,78.85,0)" xlink:href="#bd"/><use transform="matrix(0.05,0,0,0.05,83.85,0)" xlink:href="#W"/></g><g id="Q"><use transform="matrix(0.05,0,0,0.05,0,0)" xlink:href="#af"/><use transform="matrix(0.05,0,0,0.05,10,0)" xlink:href="#ay"/><use transform="matrix(0.05,0,0,0.05,24.950000000000003,0)" xlink:href="#ac"/><use transform="matrix(0.05,0,0,0.05,34.95,0)" xlink:href="#ak"/><use transform="matrix(0.05,0,0,0.05,44.95,0)" xlink:href="#ad"/><use transform="matrix(0.05,0,0,0.05,54.95,0)" xlink:href="#ae"/></g></defs></g></svg>